# xmcd CD database file
#
# Track frame offsets:
#	182
#	12431
#	25403
#	37444
#	48487
#	62045
#	75471
#	88123
#	99334
#	111887
#	123007
#	135008
#	146555
#	158995
#	173243
#	181013
#	192698
#	204154
#	217292
#	230413
#	243630
#	257015
#	268821
#	282007
#
# Disc length: 3930 seconds
#
# Revision: 0
# Processed by: cddbd v1.5.1PL2 Copyright (c) Steve Scherf et al.
# Submitted via: CDex 1.51
#
DISCID=5a0f5818
DTITLE=Lloyd Glenn - 1951-1952
DYEAR=1900
DGENRE=Blues
TTITLE0=Sleigh Ride
TTITLE1=Savage Boy
TTITLE2=Jungle Twilight
TTITLE3=Day Break Stomp
TTITLE4=Yancey Special
TTITLE5=After Hours
TTITLE6=Honky Tonk Train
TTITLE7=Pinetop Boogie Woogie
TTITLE8=Boogie Woogie On St. Louis Blues
TTITLE9=Tickle Toe Two Step
TTITLE10=Angora
TTITLE11=Cuba Doll
TTITLE12=It Moves Me
TTITLE13=Night Time
TTITLE14=Ugh
TTITLE15=You're Not The Girl For Me
TTITLE16=The Sheik Of Araby
TTITLE17=True Blue Lou
TTITLE18=On The Sunny Side Of The Street
TTITLE19=Liza
TTITLE20=Deep Blue Monday
TTITLE21=Rockin' And Swingin'
TTITLE22=You Don't Love Me
TTITLE23=Tomorrow
EXTD=
EXTT0=
EXTT1=
EXTT2=
EXTT3=
EXTT4=
EXTT5=
EXTT6=
EXTT7=
EXTT8=
EXTT9=
EXTT10=
EXTT11=
EXTT12=
EXTT13=
EXTT14=
EXTT15=
EXTT16=
EXTT17=
EXTT18=
EXTT19=
EXTT20=
EXTT21=
EXTT22=
EXTT23=
PLAYORDER=
